<svg width="352" height="126" viewBox="0 0 352 126" fill="none" xmlns="http://www.w3.org/2000/svg">
<path d="M0 0H32V6H0V0Z" fill="#FF8339"/>
<path d="M0 10H32V16H0V10Z" fill="#FF8339"/>
<path d="M32 30H0V36H32V30Z" fill="#FF8339"/>
<path d="M96 30H64V36H96V30Z" fill="#FF8339"/>
<path d="M64 110H96V116H64V110Z" fill="#FF8339"/>
<path d="M0 70V76H96V70H0Z" fill="#FF8339"/>
<path d="M96 10H64V16H96V10Z" fill="#FF8339"/>
<path d="M64 90H96V96H64V90Z" fill="#FF8339"/>
<path d="M0 50V56H96V50H0Z" fill="#FF8339"/>
<path d="M0 20H32V26H0V20Z" fill="#FF8339"/>
<path d="M96 20H64V26H96V20Z" fill="#FF8339"/>
<path d="M64 100H96V106H64V100Z" fill="#FF8339"/>
<path d="M0 60V66H96V60H0Z" fill="#FF8339"/>
<path d="M96 0H64V6H96V0Z" fill="#FF8339"/>
<path d="M64 80H96V86H64V80Z" fill="#FF8339"/>
<path d="M32 40H0V46H32V40Z" fill="#FF8339"/>
<path d="M64 40H96V46H64V40Z" fill="#FF8339"/>
<path d="M96 120H64V126H96V120Z" fill="#FF8339"/>
<path d="M128 30H160V36H128V30Z" fill="#FF8339"/>
<path d="M224 30H192V36H224V30Z" fill="#FF8339"/>
<path d="M224 110V116H128V110H224Z" fill="#FF8339"/>
<path d="M160 70H128V76H160V70Z" fill="#FF8339"/>
<path d="M192 70H224V76H192V70Z" fill="#FF8339"/>
<path d="M128 10V16H224V10H128Z" fill="#FF8339"/>
<path d="M192 90H224V96H192V90Z" fill="#FF8339"/>
<path d="M160 90H128V96H160V90Z" fill="#FF8339"/>
<path d="M128 50H160V56H128V50Z" fill="#FF8339"/>
<path d="M224 50H192V56H224V50Z" fill="#FF8339"/>
<path d="M128 20H224V26H128V20Z" fill="#FF8339"/>
<path d="M224 100H128V106H224V100Z" fill="#FF8339"/>
<path d="M128 60H160V66H128V60Z" fill="#FF8339"/>
<path d="M224 60H192V66H224V60Z" fill="#FF8339"/>
<path d="M128 0H224V6H128V0Z" fill="#FF8339"/>
<path d="M224 80H192V86H224V80Z" fill="#FF8339"/>
<path d="M128 80H160V86H128V80Z" fill="#FF8339"/>
<path d="M160 40H128V46H160V40Z" fill="#FF8339"/>
<path d="M192 40H224V46H192V40Z" fill="#FF8339"/>
<path d="M224 120H128V126H224V120Z" fill="#FF8339"/>
<path d="M256 30H288V36H256V30Z" fill="#FF8339"/>
<path d="M352 30H320V36H352V30Z" fill="#FF8339"/>
<path d="M320 110H352V116H320V110Z" fill="#FF8339"/>
<path d="M256 70V76H352V70H256Z" fill="#FF8339"/>
<path d="M256 10H288V16H256V10Z" fill="#FF8339"/>
<path d="M352 10H320V16H352V10Z" fill="#FF8339"/>
<path d="M320 90H352V96H320V90Z" fill="#FF8339"/>
<path d="M256 50V56H352V50H256Z" fill="#FF8339"/>
<path d="M256 20H288V26H256V20Z" fill="#FF8339"/>
<path d="M352 20H320V26H352V20Z" fill="#FF8339"/>
<path d="M320 100H352V106H320V100Z" fill="#FF8339"/>
<path d="M256 60V66H352V60H256Z" fill="#FF8339"/>
<path d="M256 0H288V6H256V0Z" fill="#FF8339"/>
<path d="M352 0H320V6H352V0Z" fill="#FF8339"/>
<path d="M320 80H352V86H320V80Z" fill="#FF8339"/>
<path d="M288 40H256V46H288V40Z" fill="#FF8339"/>
<path d="M320 40H352V46H320V40Z" fill="#FF8339"/>
<path d="M352 120H320V126H352V120Z" fill="#FF8339"/>
</svg>
