<svg width="166" height="28" viewBox="0 0 166 28" fill="none" xmlns="http://www.w3.org/2000/svg">
<path d="M16 2H10V5H16V2Z" fill="#FF8339"/>
<path d="M0 7H16V10H0V7Z" fill="#FF8339"/>
<path d="M16 12H0V15H16V12Z" fill="#FF8339"/>
<path d="M0 17H16V20H0V17Z" fill="#FF8339"/>
<path d="M0 22H16V25H0V22Z" fill="#FF8339"/>
<path d="M26.296 25V5.456H29.992V21.724H37.692V25H26.296ZM42.4656 8.256C41.7189 8.256 41.1776 8.088 40.8416 7.752C40.5242 7.416 40.3656 6.98667 40.3656 6.464V5.904C40.3656 5.38133 40.5242 4.952 40.8416 4.616C41.1776 4.28 41.7189 4.112 42.4656 4.112C43.1936 4.112 43.7256 4.28 44.0616 4.616C44.3976 4.952 44.5656 5.38133 44.5656 5.904V6.464C44.5656 6.98667 44.3976 7.416 44.0616 7.752C43.7256 8.088 43.1936 8.256 42.4656 8.256ZM40.6736 10.384H44.2576V25H40.6736V10.384ZM52.9758 25C51.7438 25 50.8012 24.6827 50.1478 24.048C49.5132 23.3947 49.1958 22.4707 49.1958 21.276V13.24H47.0398V10.384H48.1598C48.7012 10.384 49.0652 10.2627 49.2518 10.02C49.4572 9.75867 49.5598 9.376 49.5598 8.872V6.38H52.7798V10.384H55.7758V13.24H52.7798V22.144H55.5518V25H52.9758ZM64.6831 25.336C63.6005 25.336 62.6298 25.1587 61.7711 24.804C60.9311 24.4307 60.2125 23.9173 59.6151 23.264C59.0365 22.592 58.5885 21.7893 58.2711 20.856C57.9538 19.904 57.7951 18.84 57.7951 17.664C57.7951 16.5067 57.9445 15.4613 58.2431 14.528C58.5605 13.5947 59.0085 12.8013 59.5871 12.148C60.1658 11.476 60.8751 10.9627 61.7151 10.608C62.5551 10.2347 63.5071 10.048 64.5711 10.048C65.7098 10.048 66.6991 10.244 67.5391 10.636C68.3791 11.028 69.0698 11.56 69.6111 12.232C70.1525 12.904 70.5538 13.688 70.8151 14.584C71.0951 15.4613 71.2351 16.404 71.2351 17.412V18.588H61.5191V18.952C61.5191 20.016 61.8178 20.8747 62.4151 21.528C63.0125 22.1627 63.8991 22.48 65.0751 22.48C65.9711 22.48 66.6991 22.2933 67.2591 21.92C67.8378 21.5467 68.3511 21.0707 68.7991 20.492L70.7311 22.648C70.1338 23.488 69.3125 24.1507 68.2671 24.636C67.2405 25.1027 66.0458 25.336 64.6831 25.336ZM64.6271 12.736C63.6751 12.736 62.9191 13.0533 62.3591 13.688C61.7991 14.3227 61.5191 15.144 61.5191 16.152V16.376H67.5111V16.124C67.5111 15.116 67.2591 14.304 66.7551 13.688C66.2698 13.0533 65.5605 12.736 64.6271 12.736ZM95.9856 10.972H95.8736L94.3616 14.08L90.3576 21.472L86.3536 14.08L84.8416 10.972H84.7296V25H81.2296V5.456H85.4016L90.4136 15.004H90.5256L95.4816 5.456H99.4856V25H95.9856V10.972ZM109.661 25.336C108.616 25.336 107.673 25.1587 106.833 24.804C106.012 24.4493 105.302 23.936 104.705 23.264C104.126 22.592 103.678 21.7893 103.361 20.856C103.044 19.904 102.885 18.84 102.885 17.664C102.885 16.488 103.044 15.4333 103.361 14.5C103.678 13.5667 104.126 12.7733 104.705 12.12C105.302 11.448 106.012 10.9347 106.833 10.58C107.673 10.2253 108.616 10.048 109.661 10.048C110.706 10.048 111.649 10.2253 112.489 10.58C113.329 10.9347 114.038 11.448 114.617 12.12C115.214 12.7733 115.672 13.5667 115.989 14.5C116.306 15.4333 116.465 16.488 116.465 17.664C116.465 18.84 116.306 19.904 115.989 20.856C115.672 21.7893 115.214 22.592 114.617 23.264C114.038 23.936 113.329 24.4493 112.489 24.804C111.649 25.1587 110.706 25.336 109.661 25.336ZM109.661 22.452C110.613 22.452 111.36 22.1627 111.901 21.584C112.442 21.0053 112.713 20.156 112.713 19.036V16.32C112.713 15.2187 112.442 14.3787 111.901 13.8C111.36 13.2213 110.613 12.932 109.661 12.932C108.728 12.932 107.99 13.2213 107.449 13.8C106.908 14.3787 106.637 15.2187 106.637 16.32V19.036C106.637 20.156 106.908 21.0053 107.449 21.584C107.99 22.1627 108.728 22.452 109.661 22.452ZM119.642 4.28H123.226V12.792H123.338C123.6 11.952 124.094 11.2893 124.822 10.804C125.55 10.3 126.4 10.048 127.37 10.048C129.237 10.048 130.656 10.7107 131.626 12.036C132.616 13.3427 133.11 15.2187 133.11 17.664C133.11 20.128 132.616 22.0227 131.626 23.348C130.656 24.6733 129.237 25.336 127.37 25.336C126.4 25.336 125.55 25.084 124.822 24.58C124.113 24.076 123.618 23.404 123.338 22.564H123.226V25H119.642V4.28ZM126.222 22.368C127.156 22.368 127.912 22.06 128.49 21.444C129.069 20.828 129.358 19.9973 129.358 18.952V16.432C129.358 15.3867 129.069 14.556 128.49 13.94C127.912 13.3053 127.156 12.988 126.222 12.988C125.364 12.988 124.645 13.2027 124.066 13.632C123.506 14.0613 123.226 14.6307 123.226 15.34V19.988C123.226 20.7533 123.506 21.3413 124.066 21.752C124.645 22.1627 125.364 22.368 126.222 22.368ZM138.223 8.256C137.477 8.256 136.935 8.088 136.599 7.752C136.282 7.416 136.123 6.98667 136.123 6.464V5.904C136.123 5.38133 136.282 4.952 136.599 4.616C136.935 4.28 137.477 4.112 138.223 4.112C138.951 4.112 139.483 4.28 139.819 4.616C140.155 4.952 140.323 5.38133 140.323 5.904V6.464C140.323 6.98667 140.155 7.416 139.819 7.752C139.483 8.088 138.951 8.256 138.223 8.256ZM136.431 10.384H140.015V25H136.431V10.384ZM147.754 25C146.522 25 145.616 24.692 145.038 24.076C144.459 23.46 144.17 22.592 144.17 21.472V4.28H147.754V22.144H149.686V25H147.754ZM158.308 25.336C157.225 25.336 156.255 25.1587 155.396 24.804C154.556 24.4307 153.837 23.9173 153.24 23.264C152.661 22.592 152.213 21.7893 151.896 20.856C151.579 19.904 151.42 18.84 151.42 17.664C151.42 16.5067 151.569 15.4613 151.868 14.528C152.185 13.5947 152.633 12.8013 153.212 12.148C153.791 11.476 154.5 10.9627 155.34 10.608C156.18 10.2347 157.132 10.048 158.196 10.048C159.335 10.048 160.324 10.244 161.164 10.636C162.004 11.028 162.695 11.56 163.236 12.232C163.777 12.904 164.179 13.688 164.44 14.584C164.72 15.4613 164.86 16.404 164.86 17.412V18.588H155.144V18.952C155.144 20.016 155.443 20.8747 156.04 21.528C156.637 22.1627 157.524 22.48 158.7 22.48C159.596 22.48 160.324 22.2933 160.884 21.92C161.463 21.5467 161.976 21.0707 162.424 20.492L164.356 22.648C163.759 23.488 162.937 24.1507 161.892 24.636C160.865 25.1027 159.671 25.336 158.308 25.336ZM158.252 12.736C157.3 12.736 156.544 13.0533 155.984 13.688C155.424 14.3227 155.144 15.144 155.144 16.152V16.376H161.136V16.124C161.136 15.116 160.884 14.304 160.38 13.688C159.895 13.0533 159.185 12.736 158.252 12.736Z" fill="#0E0C31"/>
</svg>
