<svg width="136" height="20" viewBox="0 0 136 20" fill="none" xmlns="http://www.w3.org/2000/svg">
<path fill-rule="evenodd" clip-rule="evenodd" d="M76.8268 13.6242V15.4927C76.5292 20.1299 70.1631 19.9996 70.1631 19.9996C63.4985 19.9996 63.6443 15.6082 63.6443 15.6082V13.312H68.8297V14.8924C68.8297 16.2387 70.1246 16.2977 70.1246 16.2977C71.5404 16.3537 71.6588 14.9806 71.6588 14.9806C71.8522 13.6433 70.3861 12.8031 70.3861 12.8031C68.9344 12.0542 66.5146 10.7453 66.5146 10.7453C65.3228 9.95998 64.839 9.24946 64.839 9.24946C63.983 8.16566 64.0383 6.48274 64.0383 6.48274V5.02409C64.0383 3.00503 64.5787 2.42574 64.5787 2.42574C65.956 -0.172755 70.7583 0.144545 70.7583 0.144545C76.8652 0.312196 76.4909 4.12656 76.4909 4.12656L76.4998 6.4561H71.633V4.87449C71.633 3.75317 70.2752 3.67829 70.2752 3.67829C69.232 3.67829 68.9905 4.38824 68.9905 4.38824C68.4131 5.47329 69.3992 6.40755 69.3992 6.40755C69.9023 6.96868 72.4344 8.1475 72.4344 8.1475C73.2534 8.46532 74.5763 9.2874 74.5763 9.2874C77.0507 10.7825 76.8268 13.6242 76.8268 13.6242ZM49.6616 0.690896L48.0321 10.9484H47.651L46.0942 0.782735H37.9649L37.5581 19.3573H42.3712L42.4287 5.36194H42.8071L45.3585 19.3544H50.4221L52.9422 5.3672H53.2773L53.3935 19.3573H58.2316L57.7112 0.690896H49.6616ZM21.0105 0.767958L17.8082 19.3363H22.9894L24.8861 4.93901H25.3124L27.2087 19.3363H32.3892L29.1877 0.767958H21.0105ZM129.734 9.0315V11.7712H131.063V14.7117C131.063 16.1483 129.84 16.1749 129.84 16.1749C128.352 16.1749 128.408 14.8093 128.408 14.8093V4.63862C128.408 3.59077 129.728 3.53473 129.728 3.53473C130.995 3.53473 131.004 4.78437 131.004 4.78437V6.33096H135.882C136.041 3.31286 135.443 2.58184 135.443 2.58184C134.232 -0.147883 129.655 0.00145254 129.655 0.00145254C122.619 0.00145254 123.4 5.42355 123.4 5.42355V15.2576C123.551 20.3426 130.482 19.8266 130.6 19.8203C133.684 19.4774 134.615 18.4936 134.615 18.4936C135.473 17.8542 135.694 16.9695 135.694 16.9695C135.938 16.4533 136 14.8093 136 14.8093V9.0315H129.734ZM113.563 12.0537H113.351L108.399 0.695267H102.477V19.3605H107.298L107.009 8.00326H107.224L112.353 19.3605H118.097V0.69407H113.216L113.563 12.0537ZM90.7086 14.7093C90.7086 14.7093 90.7789 16.2414 89.3652 16.2414C89.3652 16.2414 87.8772 16.3214 87.8772 14.7472L87.8623 0.70661H82.5745V14.6356C82.5745 14.6356 82.0322 19.9078 89.4386 19.9078C89.4386 19.9078 95.8759 19.9846 95.8759 14.8775V0.707131H90.7086V14.7093ZM10.9299 9.28693C10.9299 9.28693 9.60863 8.46532 8.78943 8.1475C8.78943 8.1475 6.25824 6.96967 5.75617 6.40755C5.75617 6.40755 4.76929 5.4721 5.3472 4.38923C5.3472 4.38923 5.58823 3.67897 6.63023 3.67897C6.63023 3.67897 7.98904 3.75317 7.98904 4.87449V6.4561H12.8574L12.8478 4.12583C12.8478 4.12583 13.2198 0.311468 7.11499 0.144545C7.11499 0.144545 6.65545 0.114781 5.98063 0.148863C5.98063 0.148863 2.28265 0.348464 0.96066 2.38589C0.953201 2.40061 0.942374 2.41227 0.934915 2.42574C0.934915 2.42574 0.395035 3.0043 0.395035 5.02409V6.48274C0.395035 6.48274 0.339193 8.16514 1.19594 9.24946C1.19594 9.24946 1.67952 9.95998 2.87132 10.7453C2.87132 10.7453 5.2897 12.0537 6.74207 12.8021C6.74207 12.8021 8.20941 13.6425 8.01572 14.9806C8.01572 14.9806 7.89642 16.3537 6.4815 16.2977C6.4815 16.2977 5.18692 16.2387 5.18692 14.8924V13.311H0.000252723V15.6082C0.000252723 15.6082 -0.144844 19.9996 6.51833 19.9996C6.51833 19.9996 12.8839 20.1299 13.183 15.4927V13.6247C13.183 13.6247 13.406 10.7825 10.9299 9.28693Z" fill="white"/>
</svg>
