<svg width="14" height="14" viewBox="0 0 14 14" fill="none" xmlns="http://www.w3.org/2000/svg">
<path d="M11.5602 10.8536C13.4438 8.62469 13.4438 5.37561 11.5601 3.14673L13.8535 0.853516C14.0488 0.658203 14.0488 0.341797 13.8535 0.146484C13.6582 -0.0488281 13.3418 -0.0488281 13.1465 0.146484L10.853 2.4397C9.73865 1.49774 8.3764 1.00018 6.99957 1.00018C5.6228 1.00018 4.26074 1.49774 3.1463 2.43951L0.853516 0.146484C0.658203 -0.048828 0.341797 -0.048828 0.146484 0.146484C-0.0488281 0.341797 -0.0488281 0.658203 0.146484 0.853516L2.43921 3.14648C0.555176 5.37543 0.555115 8.62482 2.43915 10.8538L0.146484 13.1465C-0.048828 13.3418 -0.048828 13.6582 0.146484 13.8535C0.244141 13.9512 0.37207 14 0.5 14C0.62793 14 0.755859 13.9512 0.853516 13.8535L3.14618 11.5609C4.26056 12.5027 5.62274 13.0002 6.99957 13.0002C8.3764 13.0002 9.73865 12.5026 10.8531 11.5607L13.1465 13.8535C13.2441 13.9512 13.3721 14 13.5 14C13.6279 14 13.7559 13.9512 13.8535 13.8535C14.0488 13.6582 14.0488 13.3418 13.8535 13.1465L11.5602 10.8536ZM6.99951 12.0002C5.83386 12.0002 4.74231 11.5836 3.85217 10.8549L5.49609 9.21094C5.69141 9.01562 5.69141 8.69922 5.49609 8.50391C5.30078 8.30859 4.98438 8.30859 4.78906 8.50391L3.14636 10.1466C1.65088 8.31439 1.65088 5.68597 3.14642 3.85376L4.78906 5.49658C4.88672 5.59424 5.01465 5.64307 5.14258 5.64307C5.27051 5.64307 5.39844 5.59424 5.49609 5.49658C5.69141 5.30127 5.69141 4.98486 5.49609 4.78955L3.85223 3.14551C4.74237 2.41687 5.83386 2.00024 6.99951 2.00024C8.16528 2.00024 9.25684 2.41693 10.147 3.14569L8.50293 4.78955C8.30762 4.98486 8.30762 5.30127 8.50293 5.49658C8.60059 5.59424 8.72852 5.64307 8.85645 5.64307C8.98438 5.64307 9.1123 5.59424 9.20996 5.49658L10.8528 3.85388C12.3482 5.6861 12.3482 8.31433 10.8528 10.1465L9.20996 8.50391C9.01465 8.30859 8.69824 8.30859 8.50293 8.50391C8.30762 8.69922 8.30762 9.01562 8.50293 9.21094L10.147 10.8547C9.2569 11.5835 8.16528 12.0002 6.99951 12.0002Z" fill="#FF8339"/>
</svg>
