<svg width="21" height="28" viewBox="0 0 21 28" fill="none" xmlns="http://www.w3.org/2000/svg">
<path d="M20.4969 0H8.42804C8.30402 0 8.18439 0.0458984 8.09222 0.128845L0.16626 7.26251C0.0604248 7.35779 0 7.49347 0 7.63586V27.4969C0 27.7748 0.22522 28 0.503052 28H20.4969C20.7748 28 21 27.7748 21 27.4969V0.502991C21 0.22522 20.7748 0 20.4969 0ZM20 27H1V7.85291L8.62683 1H20V27ZM16 11.1909V6.49994C16 6.22357 16.2236 6 16.5 6C16.7764 6 17 6.22357 17 6.49994V11.1909C17 11.4671 16.7764 11.6909 16.5 11.6909C16.2236 11.6909 16 11.4671 16 11.1909ZM12 11.1904V6.50049C12 6.22418 12.2238 6.00061 12.4999 6.00061C12.7762 6.00061 13 6.22418 13 6.50049V11.1904C13 11.4665 12.7762 11.6902 12.4999 11.6902C12.2238 11.6902 12 11.4665 12 11.1904ZM8.5 6.00012C8.77643 6.00012 9 6.22369 9 6.50006V11.1909C9 11.467 8.77643 11.6908 8.5 11.6908C8.22357 11.6908 8 11.467 8 11.1909V6.50006C8 6.22369 8.22357 6.00012 8.5 6.00012Z" fill="#0E0C31"/>
</svg>
