<svg width="16" height="8" viewBox="0 0 16 8" fill="none" xmlns="http://www.w3.org/2000/svg">
<path d="M15.1587 7.86537C15.3608 8.05393 15.6772 8.04318 15.8657 7.84094C15.9556 7.7452 16 7.6221 16 7.49998C16 7.36613 15.9468 7.23326 15.8413 7.13459L8.34128 0.131587C8.32058 0.112292 8.29489 0.104109 8.27206 0.0889662C8.24362 0.0700983 8.21737 0.048727 8.18643 0.0362705C8.15658 0.0241803 8.12576 0.0211272 8.09457 0.0150822C8.06277 0.00891499 8.03225 -6.07883e-05 7.99997 3.10301e-07C7.96768 -6.07911e-05 7.93716 0.00891509 7.90536 0.0150822C7.87417 0.0211273 7.84335 0.0241803 7.8135 0.0362705C7.78256 0.0487269 7.75631 0.0700983 7.72787 0.0889662C7.70504 0.104109 7.67935 0.112292 7.65866 0.131587L0.158623 7.13459C-0.0430378 7.32412 -0.0537801 7.64066 0.134209 7.84094C0.322686 8.04318 0.639094 8.05392 0.841243 7.86537L7.99997 1.18105L15.1587 7.86537Z" fill="#0E0C31"/>
</svg>
