<svg width="16" height="8" viewBox="0 0 16 8" fill="none" xmlns="http://www.w3.org/2000/svg">
<path d="M15.1587 0.134631C15.3608 -0.0539257 15.6772 -0.0431789 15.8657 0.159056C15.9556 0.2548 16 0.377899 16 0.500022C16 0.633868 15.9468 0.766738 15.8413 0.865413L8.34128 7.86841C8.32058 7.88771 8.29489 7.89589 8.27206 7.91103C8.24362 7.9299 8.21737 7.95127 8.18643 7.96373C8.15658 7.97582 8.12576 7.97887 8.09457 7.98492C8.06277 7.99109 8.03225 8.00006 7.99997 8C7.96768 8.00006 7.93716 7.99108 7.90536 7.98492C7.87417 7.97887 7.84335 7.97582 7.8135 7.96373C7.78256 7.95127 7.75631 7.9299 7.72787 7.91103C7.70504 7.89589 7.67935 7.88771 7.65866 7.86841L0.158623 0.865414C-0.0430378 0.675879 -0.0537801 0.359338 0.134209 0.159057C0.322686 -0.0431781 0.639094 -0.0539251 0.841243 0.134632L7.99997 6.81895L15.1587 0.134631Z" fill="#0E0C31"/>
</svg>
