<svg width="16" height="16" viewBox="0 0 16 16" fill="none" xmlns="http://www.w3.org/2000/svg">
<path d="M10.2466 7.3064C11.3038 6.58575 12 5.37311 12 4C12 1.79443 10.2061 0 8 0C5.79395 0 4 1.79443 4 4C4 5.37311 4.69617 6.58575 5.75336 7.3064C2.43341 8.21942 0 11.0959 0 14.5C0 14.7764 0.223633 15 0.5 15C0.776367 15 1 14.7764 1 14.5C1 10.916 4.14062 8 8 8C11.8594 8 15 10.916 15 14.5C15 14.7764 15.2236 15 15.5 15C15.7764 15 16 14.7764 16 14.5C16 11.0959 13.5666 8.21942 10.2466 7.3064ZM5 4C5 2.3457 6.3457 1 8 1C9.6543 1 11 2.3457 11 4C11 5.6543 9.6543 7 8 7C6.3457 7 5 5.6543 5 4ZM8.99969 11.9999H10.9997V13.9999H8.99969V15.9999H6.99969V13.9999H4.99969V11.9999H6.99969V9.99994H8.99969V11.9999Z" fill="white"/>
</svg>
