<svg width="22" height="18" viewBox="0 0 22 18" fill="none" xmlns="http://www.w3.org/2000/svg">
<path d="M2.00093 4.00486H0V2.00243H2.00093V0H4.00185V2.00243H6.00278V4.00486H4.00185V6.00729H2.00093V4.00486ZM22 0.0105719V1.01179H18.8765L18.0031 2.98177H18.0083L14.8837 10.0175L14.5747 10.7145L14.5743 10.7143L14.451 10.9917H16.5072C17.3348 10.9917 18.0079 11.6653 18.0079 12.4935C18.0079 13.3217 17.3348 13.9953 16.5072 13.9953H14.4955C14.8122 14.4147 15.007 14.9309 15.007 15.497C15.007 16.8794 13.8871 18 12.5058 18C11.1244 18 10.0046 16.8794 10.0046 15.497C10.0046 14.9309 10.1995 14.4147 10.516 13.9953H6.49184C6.80845 14.4147 7.00324 14.9309 7.00324 15.497C7.00324 16.8794 5.8834 18 4.50209 18C3.12071 18 2.00093 16.8794 2.00093 15.497C2.00093 14.1146 3.12071 12.9939 4.50209 12.9939C4.5027 12.9939 4.50331 12.9941 4.50392 12.9941H12.504C12.5046 12.9941 12.5052 12.9939 12.5058 12.9939C12.5064 12.9939 12.507 12.9941 12.5076 12.9941H16.5072C16.7827 12.9941 17.0075 12.7697 17.0075 12.4935C17.0075 12.2173 16.7827 11.9929 16.5072 11.9929H8.78098V11.9927H4.00185L2.23297 8.00972H3.32784L4.65206 10.9915H13.3563L14.0506 9.42807L14.6891 7.98803H6.00278V6.98681H15.1329L16.4647 3.98298H8.00371V2.98177H16.9085L18.2258 0.0105719H22ZM6.00278 15.497C6.00278 14.6695 5.33053 13.9963 4.50392 13.9953H4.50166V13.9952C3.67431 13.9954 3.00139 14.669 3.00139 15.497C3.00139 16.3251 3.67462 16.9988 4.50209 16.9988C5.32956 16.9988 6.00278 16.3251 6.00278 15.497ZM14.0065 15.497C14.0065 14.6695 13.3342 13.9963 12.5076 13.9953H12.504C11.6773 13.9963 11.0051 14.6695 11.0051 15.497C11.0051 16.3251 11.6783 16.9988 12.5058 16.9988C13.3333 16.9988 14.0065 16.3251 14.0065 15.497Z" fill="white"/>
</svg>
