<svg width="33" height="33" viewBox="0 0 33 33" fill="none" xmlns="http://www.w3.org/2000/svg">
<path d="M24.5341 7H7.59821C7.30438 7 7.06616 7.23816 7.06616 7.53204V24.468C7.06616 24.7618 7.30438 25 7.59821 25H24.5341C24.8279 25 25.0662 24.7618 25.0662 24.468V7.53204C25.0662 7.23816 24.8279 7 24.5341 7ZM24.0662 24H8.06616V8H24.0662V24ZM17.0342 3.56842V0.5C17.0342 0.223633 17.2579 0 17.5342 0C17.8106 0 18.0342 0.223633 18.0342 0.5V3.56842C18.0342 3.84479 17.8106 4.06842 17.5342 4.06842C17.2579 4.06842 17.0342 3.84479 17.0342 3.56842ZM20.0342 3.56842V0.5C20.0342 0.223633 20.2579 0 20.5342 0C20.8106 0 21.0342 0.223633 21.0342 0.5V3.56842C21.0342 3.84479 20.8106 4.06842 20.5342 4.06842C20.2579 4.06842 20.0342 3.84479 20.0342 3.56842ZM14.0342 3.56842V0.5C14.0342 0.223633 14.2579 0 14.5342 0C14.8106 0 15.0342 0.223633 15.0342 0.5V3.56842C15.0342 3.84479 14.8106 4.06842 14.5342 4.06842C14.2579 4.06842 14.0342 3.84479 14.0342 3.56842ZM11.0342 3.56842V0.5C11.0342 0.223633 11.2579 0 11.5342 0C11.8106 0 12.0342 0.223633 12.0342 0.5V3.56842C12.0342 3.84479 11.8106 4.06842 11.5342 4.06842C11.2579 4.06842 11.0342 3.84479 11.0342 3.56842ZM18.0342 28.5V31.5684C18.0342 31.8448 17.8106 32.0684 17.5342 32.0684C17.2579 32.0684 17.0342 31.8448 17.0342 31.5684V28.5C17.0342 28.2236 17.2579 28 17.5342 28C17.8106 28 18.0342 28.2236 18.0342 28.5ZM21.0342 28.5V31.5684C21.0342 31.8448 20.8106 32.0684 20.5342 32.0684C20.2579 32.0684 20.0342 31.8448 20.0342 31.5684V28.5C20.0342 28.2236 20.2579 28 20.5342 28C20.8106 28 21.0342 28.2236 21.0342 28.5ZM15.0342 28.5V31.5684C15.0342 31.8448 14.8106 32.0684 14.5342 32.0684C14.2579 32.0684 14.0342 31.8448 14.0342 31.5684V28.5C14.0342 28.2236 14.2579 28 14.5342 28C14.8106 28 15.0342 28.2236 15.0342 28.5ZM12.0342 28.5V31.5684C12.0342 31.8448 11.8106 32.0684 11.5342 32.0684C11.2579 32.0684 11.0342 31.8448 11.0342 31.5684V28.5C11.0342 28.2236 11.2579 28 11.5342 28C11.8106 28 12.0342 28.2236 12.0342 28.5ZM32.0685 17.5342C32.0685 17.8106 31.8448 18.0342 31.5685 18.0342H28.5C28.2236 18.0342 28 17.8106 28 17.5342C28 17.2578 28.2236 17.0342 28.5 17.0342H31.5685C31.8448 17.0342 32.0685 17.2578 32.0685 17.5342ZM32.0685 20.5342C32.0685 20.8106 31.8448 21.0342 31.5685 21.0342H28.5C28.2236 21.0342 28 20.8106 28 20.5342C28 20.2578 28.2236 20.0342 28.5 20.0342H31.5685C31.8448 20.0342 32.0685 20.2578 32.0685 20.5342ZM32.0685 14.5342C32.0685 14.8106 31.8448 15.0342 31.5685 15.0342H28.5C28.2236 15.0342 28 14.8106 28 14.5342C28 14.2578 28.2236 14.0342 28.5 14.0342H31.5685C31.8448 14.0342 32.0685 14.2578 32.0685 14.5342ZM28 11.5342C28 11.2578 28.2236 11.0342 28.5 11.0342H31.5685C31.8448 11.0342 32.0685 11.2578 32.0685 11.5342C32.0685 11.8106 31.8448 12.0342 31.5685 12.0342H28.5C28.2236 12.0342 28 11.8106 28 11.5342ZM4.06848 17.5342C4.06848 17.8106 3.84485 18.0342 3.56848 18.0342H0.5C0.223633 18.0342 0 17.8106 0 17.5342C0 17.2578 0.223633 17.0342 0.5 17.0342H3.56848C3.84485 17.0342 4.06848 17.2578 4.06848 17.5342ZM4.06848 20.5342C4.06848 20.8106 3.84485 21.0342 3.56848 21.0342H0.5C0.223633 21.0342 0 20.8106 0 20.5342C0 20.2578 0.223633 20.0342 0.5 20.0342H3.56848C3.84485 20.0342 4.06848 20.2578 4.06848 20.5342ZM4.06848 14.5342C4.06848 14.8106 3.84485 15.0342 3.56848 15.0342H0.5C0.223633 15.0342 0 14.8106 0 14.5342C0 14.2578 0.223633 14.0342 0.5 14.0342H3.56848C3.84485 14.0342 4.06848 14.2578 4.06848 14.5342ZM4.06848 11.5342C4.06848 11.8106 3.84485 12.0342 3.56848 12.0342H0.5C0.223633 12.0342 0 11.8106 0 11.5342C0 11.2578 0.223633 11.0342 0.5 11.0342H3.56848C3.84485 11.0342 4.06848 11.2578 4.06848 11.5342Z" fill="#0E0C31"/>
</svg>
