<svg width="22" height="18" viewBox="0 0 22 18" fill="none" xmlns="http://www.w3.org/2000/svg">
<path d="M0 3.99429V1.99186H6.00278V3.99429H0ZM22 0V1.00122H18.8765L18.0031 2.9712H18.0083L14.8837 10.007L14.5747 10.7039L14.5743 10.7037L14.451 10.9811H16.5072C17.3348 10.9811 18.0079 11.6548 18.0079 12.4829C18.0079 13.3111 17.3348 13.9847 16.5072 13.9847H14.4955C14.8122 14.4041 15.007 14.9203 15.007 15.4864C15.007 16.8688 13.8871 17.9894 12.5058 17.9894C11.1244 17.9894 10.0046 16.8688 10.0046 15.4864C10.0046 14.9203 10.1995 14.4041 10.516 13.9847H6.49184C6.80845 14.4041 7.00324 14.9203 7.00324 15.4864C7.00324 16.8688 5.8834 17.9894 4.50209 17.9894C3.12071 17.9894 2.00093 16.8688 2.00093 15.4864C2.00093 14.104 3.12071 12.9834 4.50209 12.9834C4.5027 12.9834 4.50331 12.9835 4.50392 12.9835H12.504C12.5046 12.9835 12.5052 12.9834 12.5058 12.9834C12.5064 12.9834 12.507 12.9835 12.5076 12.9835H16.5072C16.7827 12.9835 17.0075 12.7591 17.0075 12.4829C17.0075 12.2067 16.7827 11.9823 16.5072 11.9823H8.78098V11.9821H4.00185L2.23297 7.99915H3.32784L4.65206 10.9809H13.3563L14.0506 9.4175L14.6891 7.97746H6.00278V6.97624H15.1329L16.4647 3.97241H8.00371V2.9712H16.9085L18.2258 0H22ZM6.00278 15.4864C6.00278 14.6589 5.33053 13.9857 4.50392 13.9847H4.50166V13.9846C3.67431 13.9849 3.00139 14.6584 3.00139 15.4864C3.00139 16.3145 3.67462 16.9882 4.50209 16.9882C5.32956 16.9882 6.00278 16.3145 6.00278 15.4864ZM14.0065 15.4864C14.0065 14.6589 13.3342 13.9857 12.5076 13.9847H12.504C11.6773 13.9857 11.0051 14.6589 11.0051 15.4864C11.0051 16.3145 11.6783 16.9882 12.5058 16.9882C13.3333 16.9882 14.0065 16.3145 14.0065 15.4864Z" fill="white"/>
</svg>
