<svg width="22" height="16" viewBox="0 0 22 16" fill="none" xmlns="http://www.w3.org/2000/svg">
<path d="M3 8C3 9.65417 4.34576 11 6 11C6.38879 11 6.75818 10.9214 7.09863 10.7853L8.17273 11.3224C7.54675 11.7391 6.80957 12 6 12C3.79089 12 2 10.2091 2 8C2 5.79083 3.79089 4 6 4C6.80957 4 7.54669 4.26086 8.17267 4.67761L7.09857 5.2146C6.75812 5.07855 6.38873 5 6 5C4.34576 5 3 6.34576 3 8ZM6 13C3.24298 13 1 10.757 1 8C1 5.24298 3.24298 3 6 3C7.21509 3 8.31879 3.44592 9.18164 4.1731L10.1503 3.68884C9.07275 2.64874 7.61615 2 6 2C2.68634 2 0 4.68628 0 8C0 11.3137 2.68634 14 6 14C7.61615 14 9.07275 13.3513 10.1503 12.3112L9.18176 11.8269C8.31891 12.5541 7.21515 13 6 13ZM18.4445 8L22 16L6 8L22 0L18.4445 8ZM17.5306 8.40613L17.3502 8L17.5306 7.59387L19.9542 2.14099L8.23608 8L19.9542 13.859L17.5306 8.40613Z" fill="#FF8339"/>
</svg>
