<?xml version="1.0" encoding="utf-8"?>
<!-- Generator: Adobe Illustrator 23.0.1, SVG Export Plug-In . SVG Version: 6.00 Build 0)  -->
<svg version="1.1" id="Слой_1" xmlns="http://www.w3.org/2000/svg" xmlns:xlink="http://www.w3.org/1999/xlink" x="0px" y="0px"
	 viewBox="0 0 18 18" style="enable-background:new 0 0 18 18;" xml:space="preserve">
<style type="text/css">
	.st0{fill:none;stroke:#FF8339;}
</style>
<path class="st0" d="M8.7,16.1L8.7,16.1c-3.8-2-6.2-6-6.7-6.7c0,0,0-0.1-0.1-0.1c0,0,0,0,0,0l0,0C1.8,9.1,1.5,8.5,1.1,7.7
	c-0.3-0.8-0.7-1.9-0.6-3l0,0c0.1-2.1,1.3-3.1,1.7-3.5c0,0,0.1-0.1,0.1-0.1l0,0c0.5-0.5,1.1-0.6,1.5-0.6l0,0c0.3,0,0.6,0,0.8,0.1
	c0,0,0,0,0,0c0,0,0.4,0,0.6,0.1c0.3,0.2,0.5,0.5,0.7,0.9l0,0C6,1.9,6.1,2.4,6.3,2.8C6.4,3,6.4,3.2,6.5,3.5c0.1,0.3,0.2,0.6,0.3,0.9
	c0,0.1,0.1,0.2,0.1,0.3c0,0,0,0.1,0,0.1l0,0l0,0c0,0,0,0,0,0 M13.7,10.8L13.7,10.8c-0.2-0.1-0.4-0.2-0.7-0.2c-0.3,0-0.6,0.2-0.8,0.5
	l0,0c-0.3,0.4-1.1,1.2-1.4,1.4l0,0c0,0-0.1,0.1-0.1,0.1c0,0-0.1,0-0.2-0.1c-0.1,0-0.2-0.1-0.3-0.2c-0.6-0.3-1.6-0.8-2.7-2l0,0
	c-1.1-1.1-1.8-2.4-2-2.8l0,0c0,0,0-0.1,0-0.1c0,0,0,0,0,0c0,0,0,0,0,0c0,0,0.1-0.1,0.1-0.1C5.8,7.2,6,7,6.2,6.8
	c0.1-0.1,0.1-0.1,0.2-0.2l0,0C6.6,6.4,6.7,6.2,6.8,6c0,0,0-0.1,0.1-0.1c0.3-0.5,0.2-0.9,0-1.2 M8.7,16.1c1,0.5,1.7,0.8,2.3,1
	 M6.9,4.7L6.9,4.7L6.9,4.7z M17,15.5c-0.3,0.6-0.9,1.1-1.5,1.4c-0.6,0.3-1.3,0.6-1.8,0.6c-0.8,0.1-1.7,0-2.8-0.4 M17,15.5
	c0.2-0.5,0.3-1,0.4-1.4 M11,17.1l0.2-0.5L11,17.1L11,17.1z M17.5,14.1c0-0.2,0-0.4,0-0.5 M17.5,14.1l0-0.5 M17.5,13.6
	c0-0.1,0-0.3-0.1-0.5 M17.4,13.1c-0.1-0.2-0.3-0.4-0.4-0.4c-0.1-0.1-0.2-0.1-0.3-0.2c-0.1,0-0.1-0.1-0.2-0.1
	c-0.2-0.1-0.8-0.5-1.4-0.8 M15.1,11.6c-0.6-0.3-1.2-0.7-1.4-0.8L15.1,11.6z"/>
</svg>
