<svg width="36" height="26" viewBox="0 0 36 26" fill="none" xmlns="http://www.w3.org/2000/svg">
<path d="M6.36597 20.0362C6.1333 20.3038 5.99274 20.4654 5.99274 20.8404C5.99274 21.2159 6.1333 21.3776 6.36597 21.6452C6.63354 21.9532 7 22.3748 7 23.1585C7 23.9418 6.63354 24.3633 6.36597 24.6713C6.1333 24.9389 5.99274 25.1006 5.99274 25.4761C5.99274 25.7657 5.77075 26 5.49634 26C5.22198 26 5 25.7657 5 25.4761C5 24.6928 5.36646 24.2712 5.63403 23.9633C5.8667 23.6957 6.00726 23.5341 6.00726 23.1585C6.00726 22.7825 5.8667 22.6208 5.63403 22.3533C5.36646 22.0453 5 21.6237 5 20.8404C5 20.0571 5.36646 19.6356 5.63403 19.3281C5.8667 19.0605 6.00726 18.8989 6.00726 18.5239C6.00726 18.2343 6.22925 18 6.50366 18C6.77802 18 7 18.2343 7 18.5239C7 19.3071 6.63354 19.7287 6.36597 20.0362ZM15 18.5239C15 18.2343 14.778 18 14.5037 18C14.2292 18 14.0073 18.2343 14.0073 18.5239C14.0073 18.8989 13.8667 19.0605 13.634 19.3281C13.3665 19.6356 13 20.0571 13 20.8404C13 21.6237 13.3665 22.0453 13.634 22.3533C13.8667 22.6208 14.0073 22.7825 14.0073 23.1585C14.0073 23.5341 13.8667 23.6957 13.634 23.9633C13.3665 24.2712 13 24.6928 13 25.4761C13 25.7657 13.222 26 13.4963 26C13.7708 26 13.9927 25.7657 13.9927 25.4761C13.9927 25.1006 14.1333 24.9389 14.366 24.6713C14.6335 24.3633 15 23.9418 15 23.1585C15 22.3748 14.6335 21.9532 14.366 21.6452C14.1333 21.3776 13.9927 21.2159 13.9927 20.8404C13.9927 20.4654 14.1333 20.3038 14.366 20.0362C14.6335 19.7287 15 19.3071 15 18.5239ZM23 18.5239C23 18.2343 22.778 18 22.5037 18C22.2292 18 22.0073 18.2343 22.0073 18.5239C22.0073 18.8989 21.8667 19.0605 21.634 19.3281C21.3665 19.6356 21 20.0571 21 20.8404C21 21.6237 21.3665 22.0453 21.634 22.3533C21.8667 22.6208 22.0073 22.7825 22.0073 23.1585C22.0073 23.5341 21.8667 23.6957 21.634 23.9633C21.3665 24.2712 21 24.6928 21 25.4761C21 25.7657 21.222 26 21.4963 26C21.7708 26 21.9927 25.7657 21.9927 25.4761C21.9927 25.1006 22.1333 24.9389 22.366 24.6713C22.6335 24.3633 23 23.9418 23 23.1585C23 22.3748 22.6335 21.9532 22.366 21.6452C22.1333 21.3776 21.9927 21.2159 21.9927 20.8404C21.9927 20.4654 22.1333 20.3038 22.366 20.0362C22.6335 19.7287 23 19.3071 23 18.5239ZM31 18.5239C31 18.2343 30.778 18 30.5037 18C30.2292 18 30.0073 18.2343 30.0073 18.5239C30.0073 18.8989 29.8667 19.0605 29.634 19.3281C29.3665 19.6356 29 20.0571 29 20.8404C29 21.6237 29.3665 22.0453 29.634 22.3533C29.8667 22.6208 30.0073 22.7825 30.0073 23.1585C30.0073 23.5341 29.8667 23.6957 29.634 23.9633C29.3665 24.2712 29 24.6928 29 25.4761C29 25.7657 29.222 26 29.4963 26C29.7708 26 29.9927 25.7657 29.9927 25.4761C29.9927 25.1006 30.1333 24.9389 30.366 24.6713C30.6335 24.3633 31 23.9418 31 23.1585C31 22.3748 30.6335 21.9532 30.366 21.6452C30.1333 21.3776 29.9927 21.2159 29.9927 20.8404C29.9927 20.4654 30.1333 20.3038 30.366 20.0362C30.6335 19.7287 31 19.3071 31 18.5239ZM36 0.545349V13.4546C36 13.7558 35.7558 14 35.4547 14H0.545349C0.244202 14 0 13.7558 0 13.4546V0.545349C0 0.244141 0.244202 0 0.545349 0H35.4547C35.7558 0 36 0.244141 36 0.545349ZM35 1H1V13H35V1Z" fill="#0E0C31"/>
</svg>
