<svg width="22" height="18" viewBox="0 0 22 18" fill="none" xmlns="http://www.w3.org/2000/svg">
<path d="M18.2267 0L16.909 2.9731H0L4.00195 11.9892H8.78065H14.0068H16.5081C16.7836 11.9892 17.0083 12.2143 17.0083 12.4901C17.0083 12.766 16.7836 12.991 16.5081 12.991H4.5022C3.12079 12.991 2.00098 14.1123 2.00098 15.4955C2.00098 16.8787 3.12079 18 4.5022 18C5.88361 18 7.00342 16.8787 7.00342 15.4955C7.00342 14.929 6.80856 14.4124 6.49188 13.9928H10.5164C10.1997 14.4124 10.0049 14.929 10.0049 15.4955C10.0049 16.8787 11.1247 18 12.5061 18C13.8875 18 15.0073 16.8787 15.0073 15.4955C15.0073 14.929 14.8125 14.4124 14.4958 13.9928H16.5081C17.3356 13.9928 18.0088 13.3188 18.0088 12.4901C18.0088 11.6615 17.3356 10.9874 16.5081 10.9874H14.4515L14.5744 10.7105L14.5745 10.7106L14.6462 10.5488L18.0088 2.9731H18.0037L18.8774 1.00179H22V0H18.2267ZM6.00293 15.4955C6.00293 16.3241 5.32969 16.9982 4.5022 16.9982C3.67471 16.9982 3.00147 16.3241 3.00147 15.4955C3.00147 14.6669 3.67471 13.9928 4.5022 13.9928C5.32969 13.9928 6.00293 14.6669 6.00293 15.4955ZM14.0068 15.4955C14.0068 16.3241 13.3336 16.9982 12.5061 16.9982C11.6786 16.9982 11.0054 16.3241 11.0054 15.4955C11.0054 14.6669 11.6786 13.9928 12.5061 13.9928C13.3336 13.9928 14.0068 14.6669 14.0068 15.4955ZM16.4649 3.97489L15.1329 6.98027H2.87353L1.53951 3.97489H16.4649ZM13.3566 10.9874H8.78065H4.65217L3.31815 7.98206H14.6889L13.66 10.3036L13.6601 10.3037L13.3566 10.9874Z" fill="#7F829F"/>
</svg>
