<svg width="20" height="20" viewBox="0 0 20 20" fill="none" xmlns="http://www.w3.org/2000/svg">
<path d="M19.8535 19.1465C20.0488 19.3418 20.0488 19.6582 19.8535 19.8535C19.7559 19.9512 19.6279 20 19.5 20C19.3721 20 19.2441 19.9512 19.1465 19.8535L10 10.707L0.853516 19.8535C0.755859 19.9512 0.62793 20 0.5 20C0.37207 20 0.244141 19.9512 0.146484 19.8535C-0.0488281 19.6582 -0.0488281 19.3418 0.146484 19.1465L9.29297 10L0.146484 0.853516C-0.0488281 0.658203 -0.0488281 0.341797 0.146484 0.146484C0.341797 -0.0488281 0.658203 -0.0488281 0.853516 0.146484L10 9.29297L19.1465 0.146484C19.3418 -0.048828 19.6582 -0.048828 19.8535 0.146484C20.0488 0.341797 20.0488 0.658203 19.8535 0.853516L10.707 10L19.8535 19.1465Z" fill="white"/>
</svg>
