<svg width="23" height="18" viewBox="0 0 23 18" fill="none" xmlns="http://www.w3.org/2000/svg">
<path d="M19 1V2H12V17H16V18H12H11H7V17H11V2H4V1H11V0H12V1H19ZM0 12.2083L4 2L8 12.2083C8 12.2083 6.03766 13 4 13C2.0874 13 0 12.2083 0 12.2083ZM4 4.74103L1.32074 11.5786C2.03949 11.7775 3.05499 12 4 12C4.99567 12 5.98865 11.7842 6.68329 11.589L4 4.74103ZM15 12.2083L19 2L23 12.2083C23 12.2083 21.0377 13 19 13C17.0874 13 15 12.2083 15 12.2083ZM19 4.74103L16.3207 11.5786C17.0395 11.7775 18.055 12 19 12C19.9957 12 20.9886 11.7842 21.6833 11.589L19 4.74103Z" fill="#7F829F"/>
</svg>
