<svg width="18" height="12" viewBox="0 0 18 12" fill="none" xmlns="http://www.w3.org/2000/svg">
<path d="M14.011 2.05353C12.6273 0.684509 10.8137 0 9 0C7.18634 0 5.37274 0.684509 3.98901 2.05353L0 6L3.98901 9.94647C5.37274 11.3155 7.18634 12 9 12C10.8137 12 12.6273 11.3155 14.011 9.94647L18 6L14.011 2.05353ZM13.3077 9.2356C12.1577 10.3734 10.6279 11 9 11C7.37219 11 5.84235 10.3734 4.69232 9.2356L1.42188 6L4.69232 2.7644C5.84235 1.62659 7.37219 1 9 1C10.6279 1 12.1577 1.62659 13.3077 2.7644L16.5782 6L13.3077 9.2356ZM9 3C7.34314 3 6 4.34314 6 6C6 7.65686 7.34314 9 9 9C10.6569 9 12 7.65686 12 6C12 4.34314 10.6569 3 9 3ZM9 8C7.89722 8 7 7.10278 7 6C7 4.89722 7.89722 4 9 4C10.1028 4 11 4.89722 11 6C11 7.10278 10.1028 8 9 8Z" fill="white"/>
</svg>
