<svg width="24" height="24" viewBox="0 0 24 24" fill="none" xmlns="http://www.w3.org/2000/svg">
<path d="M16.9859 5.68372L16.4943 7.99469C16.4382 8.24084 16.1994 8.45959 15.9045 8.45959H11.6348C11.1573 8.45959 10.764 8.84247 10.764 9.30743V9.81335C10.764 10.2783 11.1573 10.6612 11.6348 10.6612H15.2443C15.5814 10.6612 15.8623 10.9757 15.7921 11.3176C15.7219 11.6731 15.3427 13.4781 15.3005 13.6696C15.2725 13.8746 15.0477 14.1345 14.7106 14.1345H11.7612C11.1432 14.1481 11.0168 14.1618 10.6517 14.5994C10.2865 15.037 7.05615 18.9752 7.05615 18.9752C7.04443 18.9924 7.03265 19 7.02295 19C7.00946 19 7 18.9854 7 18.9615V5.57434C7 5.25983 7.26685 5 7.5899 5H16.4522C16.7612 5 17.0702 5.30084 16.9859 5.68372ZM24 7.44678V16.5532C24 20.666 20.666 24 16.5532 24H7.44678C3.33405 24 0 20.666 0 16.5532V7.44678C0 3.33405 3.33405 0 7.44678 0H16.5532C20.666 0 24 3.33405 24 7.44678ZM18.4366 3.9588C17.954 3.3584 17.2122 3 16.4522 3H7.5899C6.1618 3 5 4.15485 5 5.57434V18.9615C5 20.0661 5.9184 21 7.02295 21C7.64612 21 8.2337 20.7111 8.62158 20.2204C8.85706 19.9333 11.2076 17.0678 11.9777 16.134L14.7106 16.1345C15.9686 16.1345 17.0479 15.2441 17.2652 14.0466C17.3424 13.6869 17.6871 12.045 17.7542 11.7051C17.878 11.1025 17.7713 10.4746 17.4596 9.93958C17.944 9.57855 18.3042 9.05322 18.4442 8.4397L18.9421 6.09979C19.1071 5.3504 18.924 4.56506 18.4366 3.9588Z" fill="#BBBDD2"/>
</svg>
