<svg width="24" height="24" viewBox="0 0 24 24" fill="none" xmlns="http://www.w3.org/2000/svg">
<path d="M24 7.44678V16.5532C24 20.666 20.666 24 16.5532 24H15.7186V15.79H18.8859L18.8872 12.5895H15.7186V10.5469C15.7186 9.62042 15.9755 8.98877 17.3046 8.98877L18.9987 8.98755H19V6.00378L16.5301 6C14.0871 6 12.4139 7.492 12.4139 10.2299V12.5895H9.65173V15.7888H12.4139V24H7.44678C3.33405 24 0 20.666 0 16.5532V7.44678C0 3.33405 3.33405 0 7.44678 0H16.5532C20.666 0 24 3.33405 24 7.44678Z" fill="#BBBDD2"/>
</svg>
