<svg width="22" height="18" viewBox="0 0 22 18" fill="none" xmlns="http://www.w3.org/2000/svg">
<path d="M21.3914 3.24158C20.6898 1.80939 19.312 0.720093 17.7411 0.253235C17.1699 0.0830078 16.575 0 15.9801 0C14.9519 0 13.9239 0.248047 13.0205 0.722473C12.2409 1.13141 11.6134 1.73529 10.9954 2.33801C10.9483 2.29297 10.9019 2.24847 10.8546 2.20331C10.5496 1.9115 10.2522 1.60272 9.91659 1.34253C9.15908 0.754089 8.28207 0.316406 7.32113 0.129211C6.89315 0.0446777 6.45828 0.0013427 6.02371 0.0013427C5.50851 0.0013427 4.9938 0.0622558 4.49185 0.187561C2.76327 0.61792 1.238 1.82642 0.531336 3.40204C0.190699 4.1582 -0.00253831 4.95575 2.51854e-05 5.78247C0.00258869 6.60675 0.200831 7.39459 0.536402 8.14838C0.874476 8.90454 1.41085 9.53918 2.01589 10.1155C2.46328 10.5434 2.91067 10.9714 3.35806 11.3993C4.03933 12.0509 4.72061 12.7026 5.39938 13.3518C6.11367 14.035 6.82797 14.7183 7.54232 15.4016C8.08883 15.9244 8.63796 16.4496 9.18447 16.9724C9.58102 17.3516 9.96743 17.8039 10.5368 17.9449C10.6864 17.982 10.8372 18 10.9865 18C11.416 18 11.8326 17.851 12.1665 17.5793C12.1953 17.558 12.2235 17.5352 12.2502 17.5097C12.4841 17.286 12.7154 17.0648 12.9492 16.841C13.5187 16.2964 14.0881 15.7517 14.6576 15.207C15.3719 14.5238 16.0836 13.843 16.7979 13.1597C17.4615 12.5251 18.1249 11.8904 18.7909 11.2534C19.2129 10.8498 19.6374 10.4437 20.0594 10.0401C20.1306 9.97198 20.2043 9.90393 20.2755 9.83337C20.8805 9.24255 21.3253 8.54224 21.633 7.77148C22.2151 6.30524 22.0829 4.64941 21.3914 3.24158ZM20.7042 7.40082C20.4368 8.0708 20.0575 8.6485 19.5716 9.12305L19.4442 9.24524L19.3682 9.31738L18.734 9.92407L18.0997 10.5308L17.8266 10.792L16.1067 12.4371L14.9201 13.5721L13.9663 14.4844L13.1122 15.3014L12.258 16.1185L11.5353 16.8037C11.3797 16.9303 11.1848 17 10.9865 17C10.9165 17 10.8462 16.9914 10.7772 16.9742C10.5565 16.9196 10.3146 16.6808 10.0584 16.4282L9.8757 16.2497L9.14877 15.5544L8.23355 14.6789L6.32754 12.8558L6.0906 12.6292L4.73501 11.3325L4.04928 10.6766L3.14785 9.81439L2.70559 9.39136C2.08999 8.80499 1.69082 8.2804 1.44998 7.74164C1.14919 7.0661 1.00204 6.42419 1.00003 5.77936C0.998011 5.13153 1.14706 4.46985 1.44375 3.81122C2.01498 2.5376 3.27554 1.52094 4.73403 1.15778C5.14987 1.05396 5.58377 1.00134 6.02371 1.00134C6.39028 1.00134 6.76156 1.03796 7.12991 1.11072C7.89004 1.25885 8.62118 1.60254 9.30386 2.13281C9.52041 2.30072 9.73129 2.50616 9.95455 2.72369L10.1634 2.9259L10.2155 2.97577L10.3044 3.06079L11.0024 3.72815L11.6937 3.05383C12.2457 2.51544 12.8165 1.95868 13.4854 1.60785C14.2426 1.21021 15.1053 1.00006 15.9802 1C16.4881 1 16.9844 1.07117 17.4562 1.21179C18.7954 1.60974 19.9308 2.53302 20.4939 3.68237C21.0866 4.88922 21.163 6.24512 20.7042 7.40082ZM16.8865 3.12891C16.5987 3.04315 16.2946 3 15.9803 3C15.4359 3 14.8801 3.13446 14.4153 3.37854C14.004 3.59424 13.5395 4.04736 13.0902 4.4856L11.0163 6.50842L8.92227 4.50641L8.83279 4.42078L8.78085 4.37115L8.55886 4.15619C8.37722 3.97925 8.20565 3.81207 8.07845 3.71344C7.64413 3.37604 7.19705 3.16144 6.7474 3.07385C6.50131 3.02521 6.2604 3.00134 6.02371 3.00134C5.74691 3.00134 5.47598 3.03394 5.21847 3.09821C4.35409 3.31342 3.58944 3.91443 3.26864 4.6297C3.08608 5.03497 2.99887 5.40753 3.00003 5.77319C3.00112 6.13416 3.09176 6.51196 3.27706 6.92822C3.40505 7.21448 3.66995 7.54785 4.08493 7.94312L4.5303 8.36914L5.43173 9.23138L6.11746 9.88727L7.47299 11.1838L7.70999 11.4105L9.61593 13.2336L10.5312 14.1091L10.9983 14.5558L11.7298 13.8561L12.5839 13.0391L13.5376 12.1269L14.7242 10.9918L16.4441 9.34674L16.7172 9.08551L17.3515 8.47882L17.9858 7.87207L18.0703 7.79187L18.1639 7.70239C18.4629 7.41022 18.6812 7.0741 18.8466 6.65948C19.0963 6.03076 19.0431 5.2652 18.6987 4.56409C18.3811 3.91577 17.6872 3.36688 16.8865 3.12891ZM17.9179 6.28882C17.8021 6.57886 17.6624 6.79419 17.4727 6.97968L17.3821 7.06641L17.2945 7.14948L16.6603 7.75616L16.0261 8.36285L15.7529 8.62408L14.033 10.2692L12.8464 11.4042L11.8927 12.3164L11.0385 13.1334L10.9983 13.172L10.3072 12.5109L8.40121 10.6879L8.16421 10.4612L6.80868 9.16461L6.12295 8.50873L5.22152 7.64648L4.77462 7.21899C4.34683 6.81152 4.22323 6.59442 4.19064 6.52155C4.06301 6.23486 4.0007 5.98914 4.00003 5.77002C3.99929 5.55005 4.05831 5.3114 4.18106 5.03894C4.37484 4.60681 4.90078 4.20782 5.4606 4.06842C5.639 4.02393 5.82846 4.00134 6.02371 4.00134C6.19558 4.00134 6.3738 4.01935 6.55624 4.05542C6.85061 4.11273 7.15634 4.26337 7.46566 4.50366C7.54812 4.56763 7.71401 4.72925 7.86325 4.87457L8.09005 5.09424L8.14132 5.14319L8.23123 5.22919L10.3253 7.2312L11.0233 7.89856L11.7146 7.22424L13.7885 5.20142C14.1678 4.83142 14.5977 4.41205 14.8803 4.26385C15.1996 4.09619 15.6005 4 15.9803 4C16.1978 4 16.4066 4.02936 16.6016 4.08746C17.1349 4.24597 17.6056 4.60571 17.8011 5.00494C18.018 5.44659 18.0615 5.92719 17.9179 6.28882Z" fill="#7F829F"/>
</svg>
