<svg width="18" height="16" viewBox="0 0 18 16" fill="none" xmlns="http://www.w3.org/2000/svg">
<path d="M17.8436 9.86194C17.7469 9.95374 17.6229 9.99866 17.4998 9.99866C17.367 9.99866 17.2342 9.94592 17.1365 9.84241L8.99983 1.22705L0.863108 9.84241C0.765452 9.94592 0.632639 9.99866 0.499827 9.99866C0.37678 9.99866 0.252756 9.95374 0.156077 9.86194C-0.0441186 9.67249 -0.0529077 9.35608 0.136545 9.15491L8.63655 0.154907C8.6399 0.151367 8.6446 0.150268 8.64802 0.146851C8.65144 0.143433 8.65254 0.138733 8.65608 0.135376C8.67719 0.115417 8.70356 0.106811 8.72694 0.0912475C8.75544 0.0722656 8.78169 0.0502929 8.81281 0.0377197C8.84297 0.0255737 8.87428 0.0228882 8.90583 0.0168457C8.93745 0.0106811 8.96784 0.00146484 9.00001 0.00146484C9.03236 0.00146484 9.06275 0.0107421 9.09455 0.0169677C9.12586 0.0230102 9.15699 0.0255737 9.1869 0.0376586C9.21864 0.050415 9.24531 0.0726928 9.27418 0.092102C9.29707 0.107422 9.32289 0.115784 9.34358 0.135376C9.34712 0.138733 9.34822 0.143372 9.35163 0.14679C9.35505 0.150208 9.35975 0.151367 9.36311 0.154907L17.8631 9.15491C18.0526 9.35608 18.0438 9.67249 17.8436 9.86194ZM14.4803 9.99866C14.2039 9.99866 13.9803 10.2223 13.9803 10.4987V14.9987H3.9803V10.4987C3.9803 10.2223 3.75666 9.99866 3.4803 9.99866C3.20393 9.99866 2.9803 10.2223 2.9803 10.4987V15.4987C2.9803 15.775 3.20393 15.9987 3.4803 15.9987H14.4803C14.7567 15.9987 14.9803 15.775 14.9803 15.4987V10.4987C14.9803 10.2223 14.7567 9.99866 14.4803 9.99866Z" fill="white"/>
</svg>
