<svg width="24" height="24" viewBox="0 0 24 24" fill="none" xmlns="http://www.w3.org/2000/svg">
<path d="M16 12C16 14.2056 14.2056 16 12 16C9.79437 16 8 14.2056 8 12C8 9.79437 9.79437 8 12 8C14.2056 8 16 9.79437 16 12ZM24 7.44678V16.5532C24 20.666 20.666 24 16.5532 24H7.44678C3.33405 24 0 20.666 0 16.5532V7.44678C0 3.33405 3.33405 0 7.44678 0H16.5532C20.666 0 24 3.33405 24 7.44678ZM18 12C18 8.69165 15.3083 6 12 6C8.69165 6 6 8.69165 6 12C6 15.3085 8.69165 18 12 18C15.3083 18 18 15.3085 18 12ZM21 4.5C21 3.67291 20.3271 3 19.5 3C18.6729 3 18 3.67291 18 4.5C18 5.32709 18.6729 6 19.5 6C20.3271 6 21 5.32709 21 4.5Z" fill="#BBBDD2"/>
</svg>
