<svg width="16" height="16" viewBox="0 0 16 16" fill="none" xmlns="http://www.w3.org/2000/svg">
<path d="M13.9681 12.8013C14.0466 12.9553 13.9957 13.6641 13.6393 14.4697C13.283 15.2753 11.8055 15.928 11.1137 15.9807C10.4933 16.0278 9.71398 16.0101 8.87994 15.6797C8.37426 15.4794 7.72637 15.2141 6.90252 14.7885C3.43908 12.9991 1.36217 9.25641 1.20098 9.00732C1.03985 8.75836 -0.115669 6.98364 0.00945273 5.24133C0.134758 3.49896 1.11657 2.7085 1.46856 2.37744C1.82055 2.04645 2.21288 1.9856 2.45037 2.00256C2.6878 2.01959 2.92547 2.03876 3.13219 2.0639C3.35015 2.09039 3.65057 2.01807 3.89019 2.729C4.13604 3.45911 4.72338 5.25244 4.79967 5.43604C4.87597 5.61963 4.92052 5.83069 4.78478 6.05829C4.64916 6.28613 4.57903 6.42957 4.38616 6.62347C4.19311 6.81738 3.97875 7.05823 3.80718 7.20526C3.6162 7.36908 3.41674 7.5473 3.59905 7.91656C3.78136 8.28589 4.41308 9.49646 5.40466 10.5108C6.67864 11.8143 7.79974 12.2703 8.14324 12.4731C8.48675 12.6758 8.69665 12.6611 8.92144 12.4398C9.14623 12.2184 9.88628 11.47 10.1492 11.1326C10.4122 10.7952 10.6454 10.8713 10.9635 11.0128C11.2815 11.1543 12.9715 12.1362 13.3151 12.3389C13.6586 12.5416 13.8897 12.6473 13.9681 12.8013ZM15.8535 0.146484C15.6582 -0.0488281 15.3418 -0.0488281 15.1465 0.146484L9.99999 5.29297V2H8.99999V7H14V6H10.707L15.8535 0.853516C16.0488 0.658203 16.0488 0.341797 15.8535 0.146484Z" fill="#FF8339"/>
</svg>
