<svg width="20" height="32" viewBox="0 0 20 32" fill="none" xmlns="http://www.w3.org/2000/svg">
<path d="M19.4689 0H0.531067C0.237549 0 0 0.233337 0 0.521729V31.4783C0 31.7667 0.237549 32 0.531067 32H19.4689C19.7625 32 20 31.7667 20 31.4783V0.521729C20 0.233337 19.7625 0 19.4689 0ZM19 31H1V1H19V31ZM10 6.00006C11.1046 6.00006 12 5.10461 12 4.00006C12 2.89545 11.1046 2.00006 10 2.00006C8.89539 2.00006 8 2.89545 8 4.00006C8 5.10461 8.89539 6.00006 10 6.00006ZM10 3.00006C10.5514 3.00006 11 3.44867 11 4.00006C11 4.55145 10.5514 5.00006 10 5.00006C9.44861 5.00006 9 4.55145 9 4.00006C9 3.44867 9.44861 3.00006 10 3.00006Z" fill="#0E0C31"/>
</svg>
