<svg width="26" height="26" viewBox="0 0 26 26" fill="none" xmlns="http://www.w3.org/2000/svg">
<path d="M25.4328 19.3132C24.2257 17.1461 21.4816 16.3638 19.3126 17.5709C18.2628 18.1549 17.5031 19.1139 17.174 20.2693C17.1531 20.3423 17.1508 20.4169 17.1337 20.4904L13.5779 14.2918L21.3458 0.749831C21.4835 0.509586 21.4005 0.204885 21.1613 0.0671831C20.9201 -0.071495 20.6159 0.0115165 20.4787 0.251762L13.0015 13.2868L5.52403 0.251762C5.38682 0.0124931 5.08116 -0.0705185 4.84141 0.0671831C4.60215 0.204885 4.51915 0.509586 4.65684 0.749831L12.425 14.2918L8.86779 20.4932C8.59093 19.2966 7.84502 18.2136 6.69005 17.5709C4.52305 16.3638 1.77793 17.1441 0.570407 19.3132C-0.0140672 20.363 -0.155181 21.5779 0.173922 22.7342C0.503024 23.8896 1.26279 24.8486 2.3126 25.4326C3.00352 25.8174 3.75352 26 4.49327 26C6.07433 26 7.61046 25.167 8.43273 23.6903C8.65563 23.2898 8.78869 22.8674 8.87969 22.4408C8.89654 22.4201 8.92144 22.4095 8.93517 22.3856L13.0015 15.2966L17.068 22.3856C17.081 22.4082 17.1047 22.4181 17.1205 22.4379C17.2133 22.8696 17.3496 23.2936 17.5704 23.6903C18.3927 25.167 19.9284 26 21.5089 26C22.2492 26 22.9992 25.8174 23.6901 25.4326C25.8576 24.2265 26.6393 21.4812 25.4328 19.3132ZM7.5587 23.204C6.62022 24.8896 4.48399 25.4961 2.79893 24.5595C1.98252 24.1044 1.3917 23.3593 1.13584 22.4598C0.879978 21.5613 0.989353 20.616 1.44443 19.7995C2.08359 18.651 3.27793 18.0026 4.50743 18.0026C5.08262 18.0026 5.66612 18.1452 6.20372 18.444C7.88927 19.3825 8.49718 21.5184 7.5587 23.204ZM23.2038 24.5595C21.5177 25.4961 19.3825 24.8896 18.4445 23.204C17.9894 22.3875 17.88 21.4422 18.1359 20.5437C18.3917 19.6442 18.9826 18.8991 19.799 18.444C20.3366 18.1452 20.9196 18.0035 21.4953 18.0035C22.7248 18.0035 23.9196 18.651 24.5587 19.7995C25.4972 21.4851 24.8893 23.621 23.2038 24.5595Z" fill="white"/>
</svg>
