<svg width="27" height="26" viewBox="0 0 27 26" fill="none" xmlns="http://www.w3.org/2000/svg">
<path d="M2.31308 8.43066C3.004 8.81543 3.75351 8.99805 4.49375 8.99805C6.07431 8.99805 7.61044 8.16504 8.43271 6.68848C9.63925 4.52051 8.85752 1.77539 6.69003 0.569336C4.52353 -0.637695 1.77744 0.143555 0.570406 2.31152C-0.0140671 3.36133 -0.15518 4.57617 0.173921 5.73242C0.503023 6.8877 1.26279 7.84668 2.31308 8.43066ZM1.44443 2.79785C2.08359 1.64941 3.27793 1.00098 4.50742 1.00098C5.08261 1.00098 5.66611 1.14355 6.20371 1.44238C7.88925 2.38086 8.49716 4.5166 7.55869 6.20215C6.62119 7.88867 4.48545 8.49609 2.79941 7.55762C1.98252 7.10254 1.39169 6.35742 1.13584 5.45801C0.879976 4.55957 0.989351 3.61426 1.44443 2.79785ZM25.8551 0.853516L0.855074 25.8535C0.757417 25.9512 0.629488 26 0.501558 26C0.373628 26 0.245698 25.9512 0.148042 25.8535C-0.0472702 25.6582 -0.0472702 25.3418 0.148042 25.1465L25.148 0.146484C25.3434 -0.0488281 25.6598 -0.0488281 25.8551 0.146484C26.0504 0.341797 26.0504 0.658203 25.8551 0.853516ZM19.3131 17.5693C18.2628 18.1533 17.503 19.1123 17.1739 20.2676C16.8448 21.4238 16.9859 22.6387 17.5704 23.6885C18.3927 25.165 19.9283 25.998 21.5089 25.998C22.2491 25.998 22.9991 25.8154 23.69 25.4307C25.8575 24.2246 26.6393 21.4795 25.4327 19.3115C24.2262 17.1445 21.4811 16.3633 19.3131 17.5693ZM23.2037 24.5576C21.5177 25.4941 19.3824 24.8877 18.4444 23.2021C17.9894 22.3857 17.88 21.4404 18.1358 20.542C18.3917 19.6426 18.9825 18.8975 19.7994 18.4424C20.337 18.1436 20.92 18.002 21.4952 18.002C22.7247 18.002 23.9195 18.6494 24.5587 19.7979C25.4972 21.4834 24.8893 23.6191 23.2037 24.5576Z" fill="#0E0C31"/>
</svg>
