<svg width="20" height="20" viewBox="0 0 20 20" fill="none" xmlns="http://www.w3.org/2000/svg">
<path d="M19.5528 11.8984L19.052 11.5848C18.6077 11.306 18.3507 10.8095 18.3681 10.2563C18.3855 9.62042 18.673 9.11951 19.1477 8.85376L19.6356 8.57941C19.9405 8.41388 20.0798 8.03925 19.9535 7.71259L18.9169 5.02515C18.8097 4.74774 18.5392 4.56769 18.2519 4.56769C18.2009 4.56769 18.1493 4.57336 18.0981 4.58521L17.5232 4.72021C17.4139 4.74591 17.3043 4.75848 17.1957 4.75848C16.7891 4.75848 16.3971 4.58258 16.0946 4.26288C15.659 3.80554 15.511 3.24365 15.6547 2.72095L15.8115 2.18518C15.9073 1.84546 15.7374 1.48395 15.4151 1.34454L12.7844 0.177246C12.6923 0.135925 12.5983 0.116028 12.5058 0.116028C12.2569 0.116028 12.0186 0.259826 11.8567 0.516968L11.591 0.943847C11.3231 1.37091 10.8459 1.62897 10.3179 1.62897C10.2967 1.62897 10.2753 1.62854 10.2539 1.62769C9.62668 1.61462 9.11709 1.32715 8.85574 0.848023L8.58139 0.360168C8.45071 0.134766 8.20981 0 7.95785 0C7.87387 0 7.78866 0.0149536 7.7059 0.0465698L5.01858 1.08325C4.67886 1.21826 4.5134 1.57104 4.60049 1.98047L4.71371 2.44653C4.83566 2.97357 4.65707 3.52673 4.23465 3.92749C3.90945 4.23645 3.51376 4.39728 3.11838 4.39728C2.98428 4.39728 2.85019 4.37878 2.7189 4.34131L2.1788 4.19318C2.11478 4.17511 2.05014 4.1665 1.98642 4.1665C1.71207 4.1665 1.45486 4.32635 1.33823 4.58081L0.170928 7.2204C0.0315847 7.53833 0.144805 7.9173 0.445342 8.10461L0.946258 8.41821C1.39047 8.69696 1.64749 9.19788 1.63003 9.75543C1.61264 10.3826 1.32516 10.8835 0.850432 11.1536L0.362578 11.428C0.0577078 11.5935 -0.0773021 11.9725 0.0446462 12.2948L1.08127 14.991C1.18851 15.2646 1.45889 15.444 1.74606 15.444C1.79709 15.444 1.84872 15.4384 1.90005 15.4265L2.47934 15.2915C2.58768 15.2667 2.69675 15.2545 2.80502 15.2545C3.21048 15.2545 3.60458 15.4257 3.90359 15.7488C4.34354 16.2106 4.48721 16.7681 4.34354 17.2908L4.18674 17.8135C4.09091 18.1489 4.26077 18.5104 4.58304 18.6497L7.21377 19.8258C7.30307 19.8636 7.3948 19.8818 7.48538 19.8818C7.73929 19.8818 7.98416 19.7385 8.14145 19.4817L8.41586 19.0548C8.67966 18.6277 9.14059 18.3697 9.67886 18.3697C9.70053 18.3698 9.72238 18.3701 9.74429 18.371C10.3802 18.384 10.8811 18.6758 11.1424 19.1506L11.4168 19.6385C11.5431 19.865 11.7914 20 12.0396 20C12.1224 20 12.2051 19.9826 12.2923 19.9565L14.9796 18.9155C15.3236 18.7891 15.4935 18.4276 15.3977 18.0138L15.2801 17.526C15.1625 17.012 15.3367 16.4806 15.7418 16.0973C15.7418 16.0886 15.781 16.0538 15.781 16.0494C16.0924 15.7542 16.4835 15.5967 16.8769 15.5967C17.0118 15.5967 17.1469 15.6152 17.2793 15.653L17.8194 15.8055C17.8844 15.8246 17.9502 15.8338 18.0149 15.8338C18.2881 15.8338 18.5437 15.6713 18.6599 15.4178L19.8272 12.787C19.9709 12.4647 19.8534 12.0857 19.5528 11.8984ZM17.851 14.7753L17.554 14.6915C17.3339 14.6286 17.1061 14.5967 16.877 14.5967C16.2211 14.5967 15.5876 14.8549 15.093 15.3236L14.781 15.6194V15.6547L14.7418 15.6964V15.7228C14.3056 16.3105 14.1435 17.0417 14.308 17.7603L14.3835 18.074L12.167 18.9326L12.0185 18.6684C11.5824 17.8762 10.7399 17.3912 9.78262 17.3717L9.67892 17.3698C8.8038 17.3697 8.01358 17.8032 7.57468 18.514L7.38626 18.8075L5.22256 17.8403L5.30777 17.5558C5.54953 16.6764 5.30154 15.7664 4.63754 15.0696C4.15115 14.544 3.50033 14.2545 2.80514 14.2545C2.62137 14.2545 2.43674 14.2754 2.25235 14.3176L1.92325 14.3943L1.07071 12.177L1.34488 12.0228C2.13437 11.5737 2.60263 10.7574 2.62955 9.78668C2.65823 8.87 2.22769 8.04181 1.4769 7.57062L1.18912 7.39044L2.14816 5.22168L2.44418 5.3028C2.66366 5.36554 2.89047 5.39728 3.11838 5.39728C3.77682 5.39728 4.41788 5.13281 4.92288 4.65295C5.60464 4.00623 5.89065 3.09711 5.68545 2.21051L5.61606 1.92456L7.83298 1.06934L7.97787 1.3269C8.41098 2.12085 9.254 2.60706 10.2147 2.62689L10.3179 2.62897C11.1923 2.62897 11.9849 2.19769 12.44 1.47229L12.6127 1.19507L14.7782 2.15588L14.6905 2.45581C14.4488 3.3349 14.6966 4.24493 15.3682 4.9502C15.8614 5.47144 16.5104 5.75848 17.1957 5.75848C17.3821 5.75848 17.5694 5.73663 17.7518 5.69373L18.0738 5.6181L18.9272 7.83051L18.6593 7.98114C17.8659 8.42523 17.3954 9.24451 17.3686 10.2249C17.34 11.1363 17.7706 11.9613 18.5213 12.4324L18.8103 12.6133L17.851 14.7753ZM10 6C7.79086 6 6.00003 7.79089 6.00003 10C6.00003 12.2092 7.79086 14 10 14C12.2091 14 14 12.2092 14 10C14 7.79089 12.2091 6 10 6ZM10 13C8.34579 13 7.00003 11.6542 7.00003 10C7.00003 8.34583 8.34579 7 10 7C11.6543 7 13 8.34583 13 10C13 11.6542 11.6543 13 10 13Z" fill="#7F829F"/>
</svg>
