<svg width="24" height="24" viewBox="0 0 24 24" fill="none" xmlns="http://www.w3.org/2000/svg">
<path d="M16.5532 0H7.44678C3.33405 0 0 3.33405 0 7.44678V16.5532C0 20.666 3.33405 24 7.44678 24H16.5532C20.666 24 24 20.666 24 16.5532V7.44678C24 3.33405 20.666 0 16.5532 0ZM18.4668 8.98938L18.4745 9.37964C18.4745 13.3822 15.3769 18 9.71484 18C7.97656 18 6.35938 17.4982 5 16.6331C5.23633 16.6639 5.48242 16.6793 5.73242 16.6793C7.17578 16.6793 8.50189 16.1909 9.55469 15.3797C8.20508 15.3566 7.07617 14.478 6.67963 13.2765C6.86914 13.3149 7.06049 13.3303 7.25977 13.3303C7.54095 13.3303 7.81641 13.2919 8.06836 13.2245C6.664 12.9459 5.60352 11.7231 5.60352 10.2582V10.2198C6.01562 10.4466 6.48822 10.5812 6.99219 10.5966C6.16797 10.0563 5.62695 9.12396 5.62695 8.08008C5.62695 7.52448 5.7793 6.99963 6.04688 6.5556C7.55658 8.3877 9.83008 9.58923 12.3867 9.71802C12.332 9.4989 12.3105 9.26624 12.3105 9.02594C12.3105 7.35919 13.6836 6 15.3848 6C16.2695 6 17.0703 6.36914 17.6347 6.95355C18.33 6.81897 18.9921 6.57092 19.5879 6.22491C19.3594 6.93243 18.8711 7.52448 18.2304 7.89941C18.8555 7.8244 19.451 7.65906 20 7.4187C19.5879 8.0282 19.0624 8.56073 18.4668 8.98938Z" fill="#BBBDD2"/>
</svg>
