<svg width="18" height="18" viewBox="0 0 18 18" fill="none" xmlns="http://www.w3.org/2000/svg">
<path d="M11.4541 9.32935C12.9661 8.46844 14 6.86072 14 5C14 2.24316 11.7568 0 9 0C6.24316 0 4 2.24316 4 5C4 6.86072 5.03387 8.46844 6.5459 9.32935C2.77374 10.3417 0 13.6172 0 17.5C0 17.7764 0.223633 18 0.5 18C0.776367 18 1 17.7764 1 17.5C1 13.3643 4.58887 10 9 10C13.4111 10 17 13.3643 17 17.5C17 17.7764 17.2236 18 17.5 18C17.7764 18 18 17.7764 18 17.5C18 13.6172 15.2263 10.3417 11.4541 9.32935ZM5 5C5 2.79443 6.79395 1 9 1C11.2061 1 13 2.79443 13 5C13 7.20557 11.2061 9 9 9C6.79395 9 5 7.20557 5 5Z" fill="#FF8339"/>
</svg>
