<svg width="24" height="24" viewBox="0 0 24 24" fill="none" xmlns="http://www.w3.org/2000/svg">
<path d="M16.5532 0H7.44678C3.33405 0 0 3.33405 0 7.44678V16.5532C0 20.666 3.33405 24 7.44678 24H16.5532C20.666 24 24 20.666 24 16.5532V7.44678C24 3.33405 20.666 0 16.5532 0ZM18.1603 13.9059C19.5204 15.2076 19.8023 15.8411 19.8484 15.9197C20.4116 16.8825 19.224 16.9581 19.224 16.9581L16.9537 16.9908C16.9537 16.9908 16.4658 17.0903 15.8238 16.6357C14.9749 16.0347 14.1738 14.472 13.5499 14.676C12.9172 14.8831 12.9371 16.2889 12.9371 16.2889C12.9371 16.2889 12.9417 16.5891 12.7974 16.7491C12.6406 16.9232 12.3337 16.9581 12.3337 16.9581H11.3176C11.3176 16.9581 9.07568 17.0972 7.10101 14.9773C4.94763 12.6655 3.04602 8.07806 3.04602 8.07806C3.04602 8.07806 2.93634 7.7774 3.05554 7.63184C3.18951 7.46832 3.55408 7.45782 3.55408 7.45782L5.98315 7.44147C5.98315 7.44147 6.21204 7.48077 6.37579 7.60486C6.51086 7.70728 6.58649 7.89856 6.58649 7.89856C6.58649 7.89856 6.97913 8.92236 7.49896 9.84851C8.51373 11.6565 8.98639 12.0519 9.33093 11.8582C9.83301 11.5759 9.68243 9.30243 9.68243 9.30243C9.68243 9.30243 9.69159 8.47729 9.42957 8.10968C9.22675 7.8252 8.84424 7.74188 8.67523 7.71869C8.53851 7.69989 8.76288 7.37274 9.05371 7.22589C9.49084 7.00513 10.2626 6.99261 11.1747 7.0022C11.8854 7.00964 12.09 7.05542 12.3679 7.12451C13.2053 7.33295 12.9211 8.13824 12.9211 10.0696C12.9211 10.6879 12.813 11.5579 13.2458 11.8464C13.4319 11.9703 13.8871 11.8648 15.0253 9.87201C15.5646 8.92743 15.9694 7.81696 15.9694 7.81696C15.9694 7.81696 16.0576 7.61896 16.1949 7.53418C16.3354 7.44751 16.525 7.47412 16.525 7.47412L19.0812 7.45783C19.0812 7.45783 19.8493 7.3634 19.9736 7.72089C20.1041 8.09613 19.6866 8.97223 18.6423 10.4074C16.9276 12.764 16.7367 12.5435 18.1603 13.9059Z" fill="#BBBDD2"/>
</svg>
