<svg width="20" height="20" viewBox="0 0 20 20" fill="none" xmlns="http://www.w3.org/2000/svg">
<path d="M17.0739 2.93164C15.1859 1.04211 12.6751 0.0010376 9.99994 0C4.48816 0 0.00219817 4.48407 8.72364e-07 9.99573C-0.000731528 11.7575 0.459718 13.4773 1.33484 14.9932L8.72364e-07 20L5.21729 18.7833C6.67786 19.5796 8.32233 19.9993 9.99597 20H10.0001C15.5114 20 19.9977 15.5154 20 10.0037C20.001 7.33264 18.9619 4.82111 17.0739 2.93164ZM9.99683 18C8.66248 17.9994 7.34076 17.6631 6.17468 17.0273L5.50537 16.6624L4.763 16.8355L2.79089 17.2954L3.26733 15.5084L3.48035 14.7094L3.06696 13.9933C2.36835 12.7832 1.99939 11.4011 2 9.99652C2.00171 5.58746 5.59033 2.00043 9.99945 2C12.1388 2.00092 14.1488 2.8338 15.6591 4.34528C17.1695 5.85687 18.0009 7.86609 18 10.0029C17.9982 14.4125 14.4095 18 9.99683 18ZM14.9772 12.7152C15.0333 12.8252 14.9969 13.3315 14.7423 13.9069C14.4879 14.4824 13.4325 14.9485 12.9384 14.9861C12.4952 15.0198 11.9385 15.0072 11.3428 14.7712C10.9816 14.6281 10.5188 14.4386 9.93036 14.1346C7.45648 12.8564 5.97296 10.1831 5.85779 10.0052C5.74274 9.82739 4.91736 8.55975 5.00671 7.31519C5.09619 6.07068 5.79755 5.50604 6.04895 5.26959C6.30035 5.03314 6.58063 4.98969 6.75025 5.00183C6.91986 5.01398 7.0896 5.02771 7.23731 5.04565C7.39295 5.06458 7.60754 5.01288 7.77869 5.52069C7.95429 6.04218 8.37384 7.32318 8.42835 7.45428C8.48285 7.58545 8.51465 7.73615 8.41766 7.8988C8.3208 8.06152 8.27075 8.16394 8.13294 8.30249C7.99506 8.44098 7.84198 8.61298 7.71942 8.71802C7.58295 8.83502 7.44049 8.96234 7.57074 9.22614C7.70093 9.48987 8.15222 10.3546 8.86041 11.0791C9.77045 12.0102 10.5712 12.3359 10.8166 12.4807C11.062 12.6255 11.2119 12.6151 11.3724 12.457C11.533 12.2989 12.0616 11.7642 12.2494 11.5233C12.4373 11.2823 12.6039 11.3366 12.831 11.4377C13.0582 11.5388 14.2654 12.2401 14.5107 12.3849C14.7561 12.5297 14.9212 12.6052 14.9772 12.7152Z" fill="#FF8339"/>
</svg>
