<svg width="26" height="32" viewBox="0 0 26 32" fill="none" xmlns="http://www.w3.org/2000/svg">
<path d="M25.523 0H0.486877C0.219116 0 0 0.219055 0 0.486877V31.523C0 31.7864 0.213562 32 0.47699 32H25.5129C25.7808 32 26 31.7808 26 31.5129V0.476929C26 0.213501 25.7864 0 25.523 0ZM25 31H1V1H25V31ZM13.0001 28C17.9628 28 22 23.9628 22 19C22 14.0372 17.9628 10 13.0001 10C8.03772 10 4 14.0372 4 19C4 23.9628 8.03772 28 13.0001 28ZM13.0001 10.973C17.4259 10.973 21.0271 14.574 21.0271 19C21.0271 23.426 17.4259 27.027 13.0001 27.027C8.5741 27.027 4.9729 23.426 4.9729 19C4.9729 14.574 8.5741 10.973 13.0001 10.973ZM5 5.5C5 5.22357 5.18616 5 5.41632 5H6.58368C6.81384 5 7 5.22357 7 5.5C7 5.77637 6.81384 6 6.58368 6H5.41632C5.18616 6 5 5.77637 5 5.5ZM9 5.5C9 5.22357 9.18616 5 9.41632 5H10.5837C10.8138 5 11 5.22357 11 5.5C11 5.77637 10.8138 6 10.5837 6H9.41632C9.18616 6 9 5.77637 9 5.5Z" fill="#0E0C31"/>
</svg>
