<svg width="20" height="18" viewBox="0 0 20 18" fill="none" xmlns="http://www.w3.org/2000/svg">
<path d="M19.7611 15.3236L11.5271 0.892151C11.1877 0.297363 10.5939 0 9.99998 0C9.40611 0 8.8123 0.297363 8.47294 0.892151L0.238875 15.3236C-0.439836 16.5131 0.408552 18 1.76591 18H18.2341C19.5915 18 20.4398 16.5131 19.7611 15.3236ZM18.8894 16.6178C18.8227 16.7327 18.6252 17 18.2341 17H1.76591C1.3748 17 1.17735 16.7327 1.11058 16.6178C1.041 16.4979 0.901411 16.1803 1.1074 15.8192L9.34147 1.38776C9.54118 1.03778 9.86851 1 9.99998 1C10.1315 1 10.4588 1.03778 10.6585 1.38776L18.8926 15.8192C19.0986 16.1803 18.959 16.498 18.8894 16.6178ZM8.99998 6H11V11H8.99998V6ZM8.99998 13H11V15H8.99998V13Z" fill="white"/>
</svg>
