<svg width="20" height="34" viewBox="0 0 20 34" fill="none" xmlns="http://www.w3.org/2000/svg">
<path d="M18.5706 7H17.697C17.6869 6.99939 17.6783 6.99414 17.668 6.99414C16.748 6.99414 16 6.24609 16 5.32617V2.61743C16 1.17188 14.8281 0 13.3826 0H6.61664C5.17151 0 4 1.17151 4 2.61658V5.32617C4 6.24609 3.25195 6.99414 2.33203 6.99414C2.32172 6.99414 2.31311 6.99939 2.30298 7H1.42804C0.639343 7 0 7.63934 0 8.42804V25.5715C0 26.3604 0.639526 27 1.42847 27H2.2981C2.30994 27.0009 2.32001 27.0068 2.33203 27.0068C3.25195 27.0068 4 27.7549 4 28.6748V31.3826C4 32.8281 5.17188 34 6.61743 34H13.3834C14.8285 34 16 32.8285 16 31.3834V28.6748C16 27.7549 16.748 27.0068 17.668 27.0068C17.68 27.0068 17.6901 27.0009 17.7019 27H18.571C19.3602 27 20 26.3602 20 25.571V8.42938C20 7.63995 19.36 7 18.5706 7ZM5 5.32617V2.63635C5 1.7326 5.7326 1 6.63635 1H13.3641C14.2676 1 15 1.73236 15 2.63586V5.32617C15 5.96301 15.2338 6.54071 15.6077 7H4.39227C4.76624 6.54071 5 5.96301 5 5.32617ZM15 28.6748V31.3636C15 32.2673 14.2674 33 13.3636 33H6.63586C5.73242 33 5 32.2676 5 31.3641V28.6748C5 28.0375 4.76593 27.4595 4.39142 27H15.6086C15.2341 27.4595 15 28.0375 15 28.6748ZM19 25.5516C19 25.7993 18.7993 26 18.5516 26H1.44824C1.20068 26 1 25.7993 1 25.5518V8.44739C1 8.20032 1.20032 8 1.44739 8H18.5527C18.7997 8 19 8.20026 19 8.44727V25.5516Z" fill="#0E0C31"/>
</svg>
